<svg xmlns="http://www.w3.org/2000/svg" width="401" height="193" viewBox="0 0 401 193" xml:space="preserve">
  <path fill="#fccf00" d="M0 0h401v193H0z"/>
  <g fill="#694b3a">
    <path d="M137.791 68.289c-2.678-2.354-5.354-4.787-8.764-5.438-6.895-2.511-13.789-5.514-21.412-5.676-3.084-.246-5.029-3.166-7.383-5.031-4.459-.73-8.029-4.055-11.678-6.406-3.004-2.029.076-5.437-1.541-7.786-5.191-2.517-.979-9.168-5.846-11.521-1.781-.731-3.729-1.379-5.271-2.919-2.109-1.541-3.568 1.135-5.434 1.378-3.404 6.651-3.568 15.169-9.975 20.849-.732 1.132.564 2.188 0 3.326l-6.818 5.19c-5.027-1.054-5.676 5.11-8.516 7.625-4.945 2.759-8.842 7.379-13.223 11.112-4.297 2.922-6.492 7.543-10.705 10.141-1.625 1.297-4.953 1.053-4.709 3.894.41 2.271 2.514 1.216 4.303 1.54 3.16-1.297 4.053-4.948 6.002-7.382l1.541-.404c5.109 1.944 9.898.081 14.035-2.758 2.27-2.029 4.701-4.542 7.381-5.841 3.002-1.056 4.541-4.383 7.785-4.625 1.137.081 1.217 1.297 1.377 2.109-1.457 4.461-1.133 9.816-1.699 14.439 1.459 3.164.973 7.138 2.92 10.059.727 3.083 3.893 2.598 6.164 3.163 1.541-.161 2.191-1.459 3.166-2.514 1.701-.162.971 1.866 1.701 2.679-.893 3.975.162 7.864-.162 11.682-1.377 2.268-2.596 5.027-5.273 6.24-1.865-.078-4.297 2.032-5.596-.402-.244-.729.326-1.137.727-1.541 4.137-1.623 5.191-6.247 6.816-9.736.486-.729.971-2.433-.408-2.918-1.701-.49-2.918 1.62-4.459 2.107-3.408 1.947-4.545-3.893-8.193-2.675-1.541 1.134-1.785 3.163-1.945 5.028-.082 2.999.65 6.57 3.57 8.03-2.111 1.784-3.328 4.464-2.195 7.136 1.219 3.896 5.191 6.979 9.01 8.195 1.217 0 1.941-1.301 3.08-1.703 6.732-2.109 13.871-3.326 20.85-4.867 5.352-2.352 7.541 4.459 12.814 2.92 4.381-.973 5.029-5.838 5.676-9.574-.08-2.997-3.404-4.701-5.271-6.406-3.57-2.432-8.273-.648-11.678.73-.408-.324-1.541 0-1.137-.975 2.838-2.27 6.246-3.486 10.057-3.486 2.354-.648 2.676-3.244 3.566-5.028-.158-2.841-2.674-4.789-4.701-6.652-2.76-3.001-4.543 1.947-7.221 1.947-2.43 1.136-5.355 1.622-7.381 3.324-.646-.648-1.541-1.298-1.133-2.353.322-2.188.971-4.299 1.541-6.408 4.135-2.352 10.297 3.489 12.244-2.758-.078-2.349-.727-4.705.408-6.814-2.758-3.244-6.328.488-9.734 0-.408.245-1.055.649-.971 1.216 2.266 1.462 4.863-1.295 7.217.163.162.487-.408.652-.648.977-2.516-.324-5.52-.324-7.791.809-3.568-.73-6.648.975-9.729 2.354-1.867.326-4.383 1.945-5.6-.65-.57-.566-.57-1.945 0-2.512 3.65-1.706 7.787-2.191 11.684-3.328 1.865-.566 5.27.729 5.596-1.947-.326-2.512 1.459-4.135 1.621-6.408-.24-.975-1.379-1.785-2.35-1.135-3.166 2.677-8.197-.813-10.711 3.488-2.596-.162-4.623 3.57-7.057 1.381-.324-9.248 10.383-6.652 14.842-11.925 2.193-1.22 2.352-3.651 2.68-5.841 3.328 1.621 4.623 5.594 8.193 6.652 9.814.646 13.627 14.033 23.197 14.194 3.328.323 5.355-2.595 8.195-3.489l3.08.408c3.246-.246 5.842-2.192 7.625-4.869.975 0 2.189-.16 3.08.16.816-.243.98-1.297.574-1.944zM71.439 56.605c-1.299.084-3.004.732-3.896.246.484-1.706 2.35-2.68 3.65-3.73 1.377-1.707 4.137-.977 5.516.404-.813 2.11-3.566 2.11-5.27 3.08zm92.166 42.286c-.973 1.053-2.758.566-3.891.159-2.922 1.948-6.086 3.407-8.762 5.681 1.297 3 3.648-.893 5.84-.811 1.949 1.943-1.947 1.781-1.947 3.162 0 .406.486.568.732.729 2.758-1.948 6.08.893 8.434-2.11 6.488-2.271 10.789-9.813 17.521-11.68 3.973 2.76 5.354 7.304 7.787 11.113 1.947 1.947 3.979 5.434 7.381 3.893 4.867 2.758 9.568-1.701 14.764-1.539 5.357-1.218 8.52 3.488 13.219 3.242 3.412.164 6.734-2.109 8.033-5.029-.486-4.298-.242-9.004-4.135-11.68 1.863-3.486 6.73-.404 9.004-3.323 2.189-4.464.895-8.926-.408-13.386l-7.217-8.438c-7.141-6.08-17.438-1.215-24.338 2.596-2.596.893-4.705 2.76-7.541 3.084-1.139-.893-.406-2.516-.648-3.734 5.027-4.621-2.76-11.922 3.729-15.734.975-3.08 4.545-2.596 6.814-3.73 1.867-.082 4.379-1.461 5.84.404 3.006.084 6.33-.486 8.766-2.512.725-2.193.564-5.033-1.383-6.654-1.705-1.137-3.324-2.35-5.596-2.109-8.516 2.271-16.955 4.947-25.959 6.004-3.082.404-5.271-2.029-8.111-1.706-1.867.649-2.838 2.194-3.162 4.058 2.27 2.516 4.217 5.437 6.813 7.379.893 3.572 3.246 6.978 1.783 10.951-1.541 2.842-6.326 2.029-6.65 6.004-1.053 5.355-2.836 10.467-7.221 14.197-4.623 1.864-8.029 7.22-12.65 9.572.646 3.244 2.672-1.139 4.537.162-.241.731-1.131 1.132-1.378 1.785zm45.184-15.008c2.918-2.272 6.49-4.544 8.355-7.948 1.293 0 2.674.565 2.918 1.948.162 2.434-.73 5.352-3.164 6.568-2.512.324-2.918 3.163-4.459 4.703l-7.219 6.41c-1.545-.407-1.707-2.434-2.109-3.895.487-3.327 4.217-4.866 5.678-7.786zm139.434-36.928c-4.951-.085-10.383-3.326-15.006-.246-2.352.408-4.707 1.867-6.979.975-.727-2.838-2.109-6.408.328-8.923-.246-.894-1.627-1.298-1.545-2.35.408-3.651 3.408-7.304 1.217-11.113.082-1.462.566-2.761-.404-4.059-.973-2.272-3.408-3.489-5.27-4.867-5.033-2.272-6.33 3.813-8.766 6.247-1.863 4.136 1.059 8.031.408 12.246-2.762 3.488-6.813 4.87-9.979 7.223-1.137.73-1.785-.648-2.271-1.379-2.676-.084-4.057-3.57-7.219-2.518-.813.488-1.623 1.301-1.543 2.355.813 3.65 1.705 7.625 5.035 9.896 1.697.162 3.4 1.701 4.051 3.082-2.756 2.676-6.324 3.326-9.086 5.84-5.191-.73-8.189 5.027-12.49 6.813-.975 2.436-2.762 4.463-3.33 7.059.568.975 1.061 2.354 2.355 2.678 6.168 3.568 4.623-4.949 8.195-6.979 5.836-2.596 11.438-5.758 17.521-7.786 5.109-5.19 12.814-4.382 19.223-6.651 5.029-3.408 12.576-4.139 18.33-2.271 4.869-.242 9.088 2.271 13.061 4.625l.162.566c-2.273 2.678-5.592 4.543-5.592 8.437 1.941 3.404 5.352 2.435 8.758 2.919 1.301-.646 2.434-.484 3.895-.242 2.92.488 3.488-2.76 4.215-4.625 1.379-1.702.652-4.055-.324-5.677-5.433-4.382-10.866-8.599-16.95-11.275zm-38.778 5.436c-.242-.406-.969 0-1.133-.568-.326-1.139.973-.732 1.381-1.379.729-.326 1.131.811 1.539.971.163 1.054-1.216.569-1.787.976z"/>
    <path d="M344.736 23.188c-1.703-1.3-3.814-1.543-6.086-1.379-2.432.242-5.434.891-6.408 3.164 1.869 2.999 6.893 3.488 7.625 7.787-1.217 4.299-5.842 8.516-10.383 9.082.727 2.355 3.652-.809 5.273.977 1.783.729 3.244-.326 4.461-1.299 2.838-3.082 9.652-4.623 8.197-9.736 2.023-3.405-.895-6.085-2.679-8.596zm-50.863 94.583c.811 2.349 3.49 2.672 5.438 3.566 6.568 2.434 10.705-3.405 16.221-4.705 4.543 1.705 7.299-2.271 11.682-1.541 2.514 1.785 6.004-.566 7.947 2.68.57.73-.32 2.271.814 2.595 4.221-1.382 10.223-1.054 11.682-6.653 1.699-2.354.975-6.083-.408-8.356-3.244-2.026-5.596-6.649-9.57-6.243-2.109 2.107-4.869.648-6.975 2.754-2.354.086-4.707.732-6.652-.646-.406-1.218.16-2.514 1.215-3.488 3.896-2.836 10.627-2.025 11.844-7.948-1.379-1.949-3.488-3.731-6.002-3.489-1.945-.729-4.139 2.354-5.111-.404.973-.975-.162-1.945.242-3.166 1.947-3.322 5.922-.727 8.52-2.918.973-.975.648-2.922.246-4.055.482-2.842-3.576-.811-3.166-3.489.971-1.137 1.707-2.351 3.166-2.759.564-1.947 3.402-2.189 3.484-4.3-.973-1.702-.648-3.894-.973-5.839-1.947-2.76-4.949-3.893-8.193-3.893-5.678 2.35-11.924 3.162-17.359 6.084-2.27 1.863-5.436 2.107-8.354 1.945-2.434 1.297-2.842 3.813-3.895 5.842-.648 2.676.973 4.867 2.352 6.974 2.027 5.11 8.195 6.488 11.111 10.709.488 1.459-.078 2.837-.971 3.894-2.922 3.485-5.922-.729-9.168-.566-1.539.728-1.055 2.596-1.135 4.052.408 3.411 4.219 4.463 6.408 6.653.648.895 2.193.162 2.512 1.541.168 1.217 1.301 2.92-.563 3.733-2.275.891-5.682.891-7.789-.407-1.055.485-1.055 1.785-.973 2.92 1.461 1.541 3.566 1.459 5.434 1.947.646-.406 1.543-1.541 2.352-.568.484.403-.082.893-.406 1.135-2.676.567-6.326 1.707-8.355-.973-.975-1.457-1.375-3.405-2.514-4.461l-4.297 4.867c.243 2.271-1.464 4.867.159 6.976zm18.738-46.318v-1.139c2.518-2.836 5.436-5.432 9.088-6.408l.402.324c-.402 3.734-5.27 5.113-5.27 9.006-1.624-.082-2.761-1.298-4.22-1.783z"/>
  </g>
  <path fill="#37302e" d="M57.01 163.658h.119c.822-.893 4.348-4.49 5.047-5.311.676-.797 1.207-1.4 1.207-1.811 0-.266-.096-.436-.338-.484-.217-.048-.313-.096-.313-.24 0-.169.119-.217.385-.217.508 0 1.836.072 2.488.072.748 0 2.076-.072 2.824-.072.242 0 .41.048.41.217s-.121.217-.361.217c-.338 0-.941.097-1.402.267-.746.289-1.568.796-2.605 1.81-.748.725-4.395 4.347-5.217 5.215.871 1.135 5.604 6.229 6.543 7.123 1.064 1.014 2.15 2.1 3.453 2.606.725.29 1.207.362 1.496.362.17 0 .314.049.314.193 0 .169-.119.241-.58.241h-2.1c-.725 0-1.158 0-1.664-.048-1.305-.121-1.957-.652-2.994-1.569-1.064-.942-5.82-6.519-6.326-7.22l-.268-.361h-.118v2.197c0 2.221 0 4.128.072 5.166.047.677.266 1.207.869 1.305.34.047.869.096 1.184.096.193 0 .313.072.313.193 0 .169-.193.241-.459.241-1.35 0-2.871-.072-3.475-.072-.555 0-2.076.072-3.043.072-.313 0-.482-.072-.482-.241 0-.121.096-.193.387-.193.361 0 .652-.049.869-.096.482-.098.604-.628.699-1.328.121-1.015.121-2.922.121-5.143v-4.25c0-3.668 0-4.346-.049-5.117-.047-.822-.24-1.207-1.037-1.377-.193-.049-.604-.072-.941-.072-.266 0-.412-.048-.412-.217s.17-.217.533-.217c1.279 0 2.801.072 3.379.072.58 0 2.102-.072 2.922-.072.338 0 .506.048.506.217s-.145.217-.336.217c-.242 0-.387.023-.678.072-.652.121-.846.531-.893 1.377-.049.771-.049 1.449-.049 5.117v1.063zm17.765.604c0-3.113 0-3.693-.023-4.345-.049-.7-.266-.942-.725-1.087a2.736 2.736 0 0 0-.773-.096c-.217 0-.338-.049-.338-.242 0-.121.168-.169.506-.169.799 0 2.246.048 2.85.048.531 0 1.908-.048 2.729-.048.266 0 .436.048.436.169 0 .193-.121.242-.34.242-.217 0-.385.023-.627.071-.578.097-.748.387-.797 1.111-.047.651-.047 1.231-.047 4.345v3.622c0 1.979 0 3.621.096 4.49.072.556.217.87.846.966a7.8 7.8 0 0 0 1.084.072c.242 0 .34.121.34.217 0 .146-.17.218-.41.218-1.4 0-2.85-.072-3.43-.072-.482 0-1.93.072-2.775.072-.266 0-.41-.072-.41-.218 0-.096.072-.217.338-.217.314 0 .555-.023.748-.072.436-.096.555-.386.627-.989.098-.846.098-2.487.098-4.467v-3.621zm13.807 6.785c.047 1.594.313 2.076.725 2.221.361.121.771.145 1.111.145.24 0 .361.098.361.217 0 .17-.193.218-.484.218-1.375 0-2.365-.072-2.752-.072-.193 0-1.207.072-2.293.072-.289 0-.482-.024-.482-.218 0-.119.145-.217.338-.217.289 0 .676-.023.965-.096.557-.146.629-.701.652-2.487l.193-12.168c0-.411.145-.7.363-.7.264 0 .555.313.916.676.266.266 3.453 3.525 6.543 6.543 1.449 1.424 4.273 4.322 4.588 4.611h.096l-.217-9.127c-.025-1.255-.219-1.617-.725-1.811-.314-.119-.82-.119-1.111-.119-.266 0-.338-.098-.338-.219 0-.168.217-.192.531-.192 1.111 0 2.244.048 2.703.048.242 0 1.039-.048 2.078-.048.289 0 .482.024.482.192 0 .121-.121.219-.361.219-.219 0-.387 0-.652.071-.58.169-.75.532-.773 1.69l-.24 12.94c0 .459-.17.651-.338.651-.363 0-.654-.217-.869-.434-1.33-1.232-3.984-3.766-6.205-5.915-2.318-2.222-4.564-4.708-4.975-5.07h-.072l.242 8.379zm34.352 1.424c0 .555 0 .579-.266.725-1.426.7-3.525.918-5.191.918-5.215 0-9.826-2.367-9.826-8.04 0-3.284 1.762-5.577 3.719-6.712 2.027-1.184 3.936-1.328 5.721-1.328 1.473 0 3.332.241 3.768.338.434.073 1.182.193 1.689.217.24.025.289.098.289.242 0 .242-.145.797-.145 3.379 0 .314-.121.46-.289.46-.145 0-.193-.097-.219-.266-.047-.459-.168-1.11-.723-1.69-.629-.652-2.223-1.568-4.611-1.568-1.16 0-2.633.023-4.105 1.206-1.184.966-1.955 2.487-1.955 4.998 0 4.418 2.85 7.629 7.387 7.629.557 0 .99 0 1.498-.218.313-.145.41-.362.41-.723v-1.884c0-1.015 0-1.787-.025-2.414-.023-.7-.24-.918-.916-1.111-.17-.048-.531-.072-.82-.072-.193 0-.338-.097-.338-.218 0-.168.168-.192.457-.192 1.111 0 2.633.048 3.26.048.676 0 1.787-.048 2.486-.048.291 0 .436.024.436.192 0 .121-.121.218-.266.218-.17 0-.338.024-.58.072-.58.097-.795.386-.82 1.111-.023.627-.023 1.448-.023 2.463v2.268zm7.744 1.086c-.385-.168-.457-.289-.457-.82 0-1.328.096-2.776.121-3.162.023-.363.096-.629.289-.629.217 0 .242.219.242.41 0 .314.096.822.215 1.232.531 1.786 1.957 2.438 3.453 2.438 2.174 0 3.234-1.473 3.234-2.752 0-1.184-.359-2.293-2.365-3.863l-1.109-.868c-2.656-2.077-3.574-3.767-3.574-5.722 0-2.656 2.221-4.563 5.576-4.563 1.57 0 2.584.241 3.213.411.217.048.338.12.338.289 0 .314-.098 1.014-.098 2.896 0 .532-.072.725-.266.725-.168 0-.24-.145-.24-.434 0-.217-.121-.967-.629-1.594-.361-.459-1.063-1.184-2.631-1.184-1.787 0-2.873 1.039-2.873 2.486 0 1.111.555 1.957 2.559 3.477l.676.508c2.922 2.197 3.959 3.862 3.959 6.156 0 1.4-.529 3.066-2.27 4.201-1.205.771-2.559.99-3.838.99-1.4.001-2.486-.169-3.525-.628zm20.375-13.979-3.164.073c-1.23.024-1.738.169-2.053.628a2.363 2.363 0 0 0-.361.699c-.049.17-.096.266-.242.266-.145 0-.191-.121-.191-.338 0-.338.41-2.318.459-2.486.047-.266.119-.387.24-.387.168 0 .387.169.918.241.627.073 1.424.097 2.123.097h8.619c.678 0 1.135-.048 1.449-.097.338-.048.508-.097.578-.097.146 0 .17.121.17.436 0 .434-.049 1.955-.049 2.486-.023.217-.07.338-.191.338-.17 0-.219-.097-.242-.41l-.023-.217c-.049-.531-.604-1.159-2.512-1.184l-2.68-.049v8.306c0 1.883.023 3.501.119 4.394.074.58.195.967.822 1.063a7.81 7.81 0 0 0 1.086.072c.242 0 .338.121.338.217 0 .146-.17.218-.41.218-1.4 0-2.824-.072-3.428-.072-.482 0-1.932.072-2.777.072-.266 0-.41-.072-.41-.218 0-.096.072-.217.338-.217.314 0 .58-.023.748-.072.436-.096.557-.482.629-1.086.098-.869.098-2.487.098-4.37v-8.306zm12.478 6.495c0-3.501 2.463-8.04 8.908-8.04 5.359 0 8.691 2.971 8.691 7.678s-3.428 8.402-8.908 8.402c-6.181 0-8.691-4.394-8.691-8.04zm14.438.386c0-4.539-2.729-7.339-6.158-7.339-2.365 0-5.141 1.255-5.141 6.325 0 4.225 2.414 7.557 6.42 7.557 1.498 0 4.879-.7 4.879-6.543zm11.099 4.588c.049 1.594.314 2.076.725 2.221.363.121.773.145 1.113.145.24 0 .361.098.361.217 0 .17-.195.218-.482.218-1.377 0-2.367-.072-2.754-.072-.193 0-1.207.072-2.293.072-.291 0-.482-.024-.482-.218 0-.119.143-.217.338-.217.289 0 .676-.023.965-.096.555-.146.629-.701.652-2.487l.191-12.168c0-.411.146-.7.365-.7.264 0 .555.313.916.676.266.266 3.453 3.525 6.543 6.543 1.449 1.424 4.273 4.322 4.588 4.611h.096l-.217-9.127c-.025-1.255-.219-1.617-.725-1.811-.314-.119-.822-.119-1.111-.119-.266 0-.338-.098-.338-.219 0-.168.217-.192.531-.192 1.109 0 2.244.048 2.703.048.242 0 1.039-.048 2.076-.048.291 0 .484.024.484.192 0 .121-.121.219-.363.219-.217 0-.387 0-.652.071-.578.169-.748.532-.771 1.69l-.242 12.94c0 .459-.168.651-.338.651-.361 0-.652-.217-.867-.434-1.33-1.232-3.984-3.766-6.207-5.915-2.316-2.222-4.561-4.708-4.971-5.07h-.074l.24 8.379zm21.629-6.785c0-3.113 0-3.693-.025-4.345-.047-.7-.24-.917-.916-1.111-.17-.048-.531-.071-.846-.071-.219 0-.361-.073-.361-.219 0-.145.168-.192.482-.192 1.109 0 2.461.048 3.066.048.674 0 5.383.024 5.793 0 .387-.023.725-.097.895-.121.119-.023.24-.096.336-.096.123 0 .146.096.146.193 0 .145-.121.387-.168 1.328-.025.217-.074 1.109-.121 1.352-.025.096-.074.338-.242.338-.146 0-.17-.097-.17-.266 0-.145-.023-.507-.143-.749-.17-.361-.34-.651-1.402-.747-.361-.049-2.896-.098-3.332-.098-.098 0-.145.072-.145.193v5.07c0 .121.025.217.145.217.482 0 3.236 0 3.719-.049.506-.047.797-.12 1.016-.313.166-.146.24-.267.336-.267s.17.097.17.218-.049.459-.17 1.497a21.88 21.88 0 0 0-.096 1.376c0 .169-.023.459-.219.459-.145 0-.191-.072-.191-.169-.025-.218-.025-.483-.074-.749-.119-.41-.385-.725-1.184-.797-.385-.048-2.799-.096-3.33-.096-.096 0-.121.096-.121.217v1.643c0 .699-.023 2.438 0 3.041.047 1.399.701 1.714 2.873 1.714.557 0 1.449-.023 2.006-.266.529-.241.771-.676.916-1.521.049-.217.096-.314.24-.314.17 0 .193.266.193.483 0 .458-.168 1.859-.289 2.269-.145.532-.338.532-1.135.532-1.594 0-2.873-.024-3.91-.073-1.039-.023-1.834-.048-2.463-.048-.242 0-.701.024-1.207.024-.508.023-1.039.048-1.473.048-.266 0-.41-.072-.41-.218 0-.096.07-.217.338-.217.314 0 .555-.023.748-.072.434-.096.555-.482.629-1.086.096-.869.096-2.487.096-4.37v-3.62zm14.627 8.04c0-.604.434-1.473 1.473-1.473.82 0 1.471.556 1.471 1.4s-.578 1.545-1.494 1.545c-1.016 0-1.45-.796-1.45-1.472zm10.961-.411c-2.102-1.762-2.656-4.08-2.656-6.059 0-1.4.459-3.815 2.486-5.625 1.545-1.354 3.574-2.174 6.736-2.174 1.328 0 2.123.098 3.09.217.797.121 1.498.266 2.123.338.244.025.314.121.314.242 0 .17-.047.41-.096 1.135-.049.676-.049 1.811-.072 2.221-.025.291-.096.508-.291.508-.168 0-.217-.17-.217-.436a2.89 2.89 0 0 0-.82-1.907c-.723-.699-2.148-1.206-4.104-1.206-1.859 0-3.043.338-4.008 1.158-1.57 1.352-1.955 3.332-1.955 5.336 0 4.877 3.766 7.194 6.613 7.194 1.885 0 2.922-.145 3.766-1.087.363-.41.654-.989.725-1.376.049-.313.098-.41.266-.41.146 0 .242.193.242.362 0 .24-.242 2.028-.459 2.728-.096.362-.193.46-.555.604-.846.338-2.463.459-3.838.459-2.897 0-5.358-.603-7.29-2.222zm17.016-5.818c0-3.501 2.463-8.04 8.908-8.04 5.359 0 8.691 2.971 8.691 7.678s-3.428 8.402-8.908 8.402c-6.181 0-8.691-4.394-8.691-8.04zm14.437.386c0-4.539-2.729-7.339-6.156-7.339-2.367 0-5.143 1.255-5.143 6.325 0 4.225 2.414 7.557 6.422 7.557 1.496 0 4.877-.7 4.877-6.543zm11.176-7.967c.047-.338.24-.531.41-.531.217 0 .361.097.65.652l5.699 11.347 5.697-11.491c.168-.338.361-.508.555-.508.17 0 .41.217.482.652l1.932 12.627c.195 1.279.387 1.834 1.039 2.027.604.169.941.193 1.207.193.193 0 .338.072.338.193 0 .168-.242.241-.555.241-.533 0-3.551-.073-4.396-.121-.506-.024-.627-.12-.627-.241 0-.097.098-.17.242-.217.119-.049.168-.291.098-.87l-1.184-8.86h-.074l-4.561 9.078c-.484.965-.605 1.158-.848 1.158-.266 0-.506-.41-.844-1.038-.506-.941-2.197-4.08-2.438-4.659-.17-.386-1.424-2.873-2.125-4.297h-.072l-1.016 7.918c-.047.362-.07.628-.07.966 0 .386.289.532.65.604.363.072.555.096.75.096.193 0 .338.098.338.193 0 .193-.193.241-.508.241-.893 0-1.859-.072-2.246-.072-.41 0-1.424.072-2.1.072-.219 0-.385-.048-.385-.241 0-.096.119-.193.336-.193.17 0 .314 0 .652-.049.58-.072.773-.893.869-1.568l2.105-13.302zm22.207 13.81c0-.604.434-1.473 1.471-1.473.82 0 1.475.556 1.475 1.4s-.58 1.545-1.498 1.545c-1.014 0-1.448-.796-1.448-1.472zm13.445-12.724-3.162.073c-1.232.024-1.74.169-2.055.628a2.389 2.389 0 0 0-.361.699c-.049.17-.096.266-.24.266s-.193-.121-.193-.338c0-.338.41-2.318.459-2.486.047-.266.119-.387.24-.387.17 0 .387.169.918.241.627.073 1.424.097 2.125.097h8.619c.676 0 1.135-.048 1.447-.097.338-.048.508-.097.578-.097.146 0 .17.121.17.436 0 .434-.047 1.955-.047 2.486-.025.217-.074.338-.193.338-.17 0-.219-.097-.242-.41l-.023-.217c-.049-.531-.604-1.159-2.51-1.184l-2.682-.049v8.306c0 1.883.023 3.501.121 4.394.072.58.191.967.82 1.063.291.049.771.072 1.088.072.238 0 .338.121.338.217 0 .146-.17.218-.41.218-1.4 0-2.826-.072-3.43-.072-.482 0-1.932.072-2.777.072-.266 0-.41-.072-.41-.218 0-.096.072-.217.34-.217.313 0 .578-.023.748-.072.436-.096.555-.482.627-1.086.098-.869.098-2.487.098-4.37v-8.306zm13.637.749c-.266-.749-.436-1.231-.748-1.425-.219-.145-.629-.168-.82-.168-.219 0-.34-.073-.34-.219 0-.145.17-.192.484-.192 1.086 0 2.268.048 2.461.048s1.232-.048 2.463-.048c.314 0 .457.048.457.192 0 .146-.166.219-.385.219-.17 0-.361.023-.531.096-.193.072-.215.193-.215.41 0 .266.191.941.457 1.883.363 1.354 2.293 7.557 2.607 8.499h.074l4.055-10.502c.217-.579.436-.749.627-.749.242 0 .434.314.699.967l4.252 10.139h.07c.41-1.183 2.029-6.591 2.775-8.98.145-.482.219-.893.219-1.183 0-.339-.193-.579-1.039-.579-.191 0-.361-.098-.361-.219 0-.145.17-.192.508-.192 1.109 0 2.074.048 2.268.048.146 0 1.064-.048 1.764-.048.242 0 .387.048.387.169 0 .145-.098.242-.291.242-.217 0-.506.023-.748.096-.506.193-.75.966-1.184 2.148-.988 2.584-3.162 9.103-4.201 12.168-.24.725-.359.967-.676.967-.289 0-.434-.242-.748-.99l-4.32-10.141h-.049c-.361.869-3.211 8.16-4.08 10.043-.387.846-.506 1.088-.82 1.088-.266 0-.389-.218-.58-.75l-4.491-13.037z"/>
  <path fill="#b81c22" d="M204.828 127.882c51.68-3.256 98.248 1.44 124.91 5.093-33.158-1.023-78.111-3.066-125.705 0-47.604 3.059-89.498 10.572-122.459 16.06 26.655-7.314 71.594-17.691 123.254-21.153z"/>
</svg>
